<mxfile host="app.diagrams.net" agent="Mozilla/5.0 (Macintosh; Intel Mac OS X 10_15_7) AppleWebKit/537.36 (KHTML, like Gecko) Chrome/131.0.0.0 Safari/537.36" version="26.0.4">
  <diagram name="Page-1" id="d5BuHDdx11dOFUYsjuQ5">
    <mxGraphModel dx="1820" dy="1784" grid="1" gridSize="10" guides="1" tooltips="1" connect="1" arrows="1" fold="1" page="1" pageScale="1" pageWidth="850" pageHeight="1100" math="0" shadow="0">
      <root>
        <mxCell id="0" />
        <mxCell id="1" parent="0" />
        <mxCell id="khy_yN-TwpCxYzihnUn8-1" value="Actor" style="shape=umlActor;verticalLabelPosition=bottom;verticalAlign=top;html=1;outlineConnect=0;" parent="1" vertex="1">
          <mxGeometry x="-20" y="161.26" width="50" height="72.5" as="geometry" />
        </mxCell>
        <mxCell id="khy_yN-TwpCxYzihnUn8-2" value="cmd&lt;div&gt;line&lt;/div&gt;" style="text;html=1;align=center;verticalAlign=middle;whiteSpace=wrap;rounded=0;" parent="1" vertex="1">
          <mxGeometry x="30" y="161.26" width="60" height="30" as="geometry" />
        </mxCell>
        <mxCell id="khy_yN-TwpCxYzihnUn8-7" value="" style="endArrow=classic;html=1;rounded=0;entryX=0;entryY=0.5;entryDx=0;entryDy=0;" parent="1" source="khy_yN-TwpCxYzihnUn8-1" target="khy_yN-TwpCxYzihnUn8-9" edge="1">
          <mxGeometry width="50" height="50" relative="1" as="geometry">
            <mxPoint x="40" y="200" as="sourcePoint" />
            <mxPoint x="110" y="200" as="targetPoint" />
          </mxGeometry>
        </mxCell>
        <mxCell id="khy_yN-TwpCxYzihnUn8-25" value="" style="edgeStyle=orthogonalEdgeStyle;rounded=0;orthogonalLoop=1;jettySize=auto;html=1;entryX=0;entryY=0.5;entryDx=0;entryDy=0;entryPerimeter=0;" parent="1" source="khy_yN-TwpCxYzihnUn8-9" target="1n4Yk2UCJYNvjyyztTE--10" edge="1">
          <mxGeometry relative="1" as="geometry">
            <mxPoint x="190" y="197.5" as="targetPoint" />
          </mxGeometry>
        </mxCell>
        <mxCell id="khy_yN-TwpCxYzihnUn8-9" value="pull stock data" style="shape=process;whiteSpace=wrap;html=1;backgroundOutline=1;" parent="1" vertex="1">
          <mxGeometry x="90" y="170" width="70" height="55" as="geometry" />
        </mxCell>
        <mxCell id="khy_yN-TwpCxYzihnUn8-26" value="" style="edgeStyle=orthogonalEdgeStyle;rounded=0;orthogonalLoop=1;jettySize=auto;html=1;exitX=1;exitY=0.5;exitDx=0;exitDy=0;exitPerimeter=0;entryX=0;entryY=0.5;entryDx=0;entryDy=0;" parent="1" source="1n4Yk2UCJYNvjyyztTE--10" target="1n4Yk2UCJYNvjyyztTE--20" edge="1">
          <mxGeometry relative="1" as="geometry">
            <mxPoint x="270" y="197.5" as="sourcePoint" />
            <mxPoint x="300" y="197.5" as="targetPoint" />
          </mxGeometry>
        </mxCell>
        <mxCell id="1n4Yk2UCJYNvjyyztTE--7" value="Clean Data" style="sketch=0;points=[[0,0,0],[0.25,0,0],[0.5,0,0],[0.75,0,0],[1,0,0],[0,1,0],[0.25,1,0],[0.5,1,0],[0.75,1,0],[1,1,0],[0,0.25,0],[0,0.5,0],[0,0.75,0],[1,0.25,0],[1,0.5,0],[1,0.75,0]];outlineConnect=0;fontColor=#232F3E;fillColor=#ED7100;strokeColor=#ffffff;dashed=0;verticalLabelPosition=bottom;verticalAlign=top;align=center;html=1;fontSize=12;fontStyle=0;aspect=fixed;shape=mxgraph.aws4.resourceIcon;resIcon=mxgraph.aws4.lambda;" parent="1" vertex="1">
          <mxGeometry x="470" y="151.76" width="78" height="78" as="geometry" />
        </mxCell>
        <mxCell id="1n4Yk2UCJYNvjyyztTE--8" value="Current Overall Stock&amp;nbsp;&lt;div&gt;Metrics&lt;/div&gt;" style="sketch=0;points=[[0,0,0],[0.25,0,0],[0.5,0,0],[0.75,0,0],[1,0,0],[0,1,0],[0.25,1,0],[0.5,1,0],[0.75,1,0],[1,1,0],[0,0.25,0],[0,0.5,0],[0,0.75,0],[1,0.25,0],[1,0.5,0],[1,0.75,0]];outlineConnect=0;fontColor=#232F3E;fillColor=#C925D1;strokeColor=#ffffff;dashed=0;verticalLabelPosition=bottom;verticalAlign=top;align=center;html=1;fontSize=12;fontStyle=0;aspect=fixed;shape=mxgraph.aws4.resourceIcon;resIcon=mxgraph.aws4.rds;" parent="1" vertex="1">
          <mxGeometry x="1140" y="152.76" width="78" height="78" as="geometry" />
        </mxCell>
        <mxCell id="1n4Yk2UCJYNvjyyztTE--9" value="Historical Stock Data&lt;div&gt;(Price, Nav, Div, etc)&lt;/div&gt;" style="sketch=0;points=[[0,0,0],[0.25,0,0],[0.5,0,0],[0.75,0,0],[1,0,0],[0,1,0],[0.25,1,0],[0.5,1,0],[0.75,1,0],[1,1,0],[0,0.25,0],[0,0.5,0],[0,0.75,0],[1,0.25,0],[1,0.5,0],[1,0.75,0]];outlineConnect=0;fontColor=#232F3E;fillColor=#C925D1;strokeColor=#ffffff;dashed=0;verticalLabelPosition=bottom;verticalAlign=top;align=center;html=1;fontSize=12;fontStyle=0;aspect=fixed;shape=mxgraph.aws4.resourceIcon;resIcon=mxgraph.aws4.rds;" parent="1" vertex="1">
          <mxGeometry x="610" y="151.76" width="78" height="78" as="geometry" />
        </mxCell>
        <mxCell id="1n4Yk2UCJYNvjyyztTE--10" value="Raw Data&lt;div&gt;bronze/cef/price&lt;/div&gt;" style="sketch=0;points=[[0,0,0],[0.25,0,0],[0.5,0,0],[0.75,0,0],[1,0,0],[0,1,0],[0.25,1,0],[0.5,1,0],[0.75,1,0],[1,1,0],[0,0.25,0],[0,0.5,0],[0,0.75,0],[1,0.25,0],[1,0.5,0],[1,0.75,0]];outlineConnect=0;fontColor=#232F3E;fillColor=#7AA116;strokeColor=#ffffff;dashed=0;verticalLabelPosition=bottom;verticalAlign=top;align=center;html=1;fontSize=12;fontStyle=0;aspect=fixed;shape=mxgraph.aws4.resourceIcon;resIcon=mxgraph.aws4.s3;" parent="1" vertex="1">
          <mxGeometry x="200" y="233.76" width="78" height="78" as="geometry" />
        </mxCell>
        <mxCell id="1n4Yk2UCJYNvjyyztTE--37" value="" style="edgeStyle=orthogonalEdgeStyle;rounded=0;orthogonalLoop=1;jettySize=auto;html=1;exitX=1;exitY=0.5;exitDx=0;exitDy=0;exitPerimeter=0;entryX=0;entryY=0.5;entryDx=0;entryDy=0;entryPerimeter=0;" parent="1" source="1n4Yk2UCJYNvjyyztTE--7" target="1n4Yk2UCJYNvjyyztTE--9" edge="1">
          <mxGeometry relative="1" as="geometry">
            <mxPoint x="558" y="197.5" as="sourcePoint" />
            <mxPoint x="620" y="100" as="targetPoint" />
          </mxGeometry>
        </mxCell>
        <mxCell id="b-xcaAoUIbwOstEj6APi-6" value="" style="edgeStyle=orthogonalEdgeStyle;rounded=0;orthogonalLoop=1;jettySize=auto;html=1;" edge="1" parent="1" source="1n4Yk2UCJYNvjyyztTE--20" target="1n4Yk2UCJYNvjyyztTE--7">
          <mxGeometry relative="1" as="geometry" />
        </mxCell>
        <mxCell id="1n4Yk2UCJYNvjyyztTE--20" value="join&#xa;stock/cef" style="rhombus;" parent="1" vertex="1">
          <mxGeometry x="330" y="155.76" width="80" height="70" as="geometry" />
        </mxCell>
        <mxCell id="b-xcaAoUIbwOstEj6APi-11" value="" style="edgeStyle=orthogonalEdgeStyle;rounded=0;orthogonalLoop=1;jettySize=auto;html=1;" edge="1" parent="1" source="1n4Yk2UCJYNvjyyztTE--23" target="1n4Yk2UCJYNvjyyztTE--8">
          <mxGeometry relative="1" as="geometry" />
        </mxCell>
        <mxCell id="1n4Yk2UCJYNvjyyztTE--23" value="&lt;div&gt;Current Overall Stock&amp;nbsp;&lt;/div&gt;&lt;div&gt;Metrics&lt;/div&gt;" style="sketch=0;points=[[0,0,0],[0.25,0,0],[0.5,0,0],[0.75,0,0],[1,0,0],[0,1,0],[0.25,1,0],[0.5,1,0],[0.75,1,0],[1,1,0],[0,0.25,0],[0,0.5,0],[0,0.75,0],[1,0.25,0],[1,0.5,0],[1,0.75,0]];outlineConnect=0;fontColor=#232F3E;fillColor=#ED7100;strokeColor=#ffffff;dashed=0;verticalLabelPosition=bottom;verticalAlign=top;align=center;html=1;fontSize=12;fontStyle=0;aspect=fixed;shape=mxgraph.aws4.resourceIcon;resIcon=mxgraph.aws4.lambda;" parent="1" vertex="1">
          <mxGeometry x="1000" y="150.76" width="80" height="80" as="geometry" />
        </mxCell>
        <mxCell id="1n4Yk2UCJYNvjyyztTE--27" value="" style="edgeStyle=orthogonalEdgeStyle;rounded=0;orthogonalLoop=1;jettySize=auto;html=1;exitX=1;exitY=0.5;exitDx=0;exitDy=0;exitPerimeter=0;" parent="1" source="1n4Yk2UCJYNvjyyztTE--9" target="1n4Yk2UCJYNvjyyztTE--26" edge="1">
          <mxGeometry relative="1" as="geometry">
            <mxPoint x="878" y="197.5" as="sourcePoint" />
          </mxGeometry>
        </mxCell>
        <mxCell id="b-xcaAoUIbwOstEj6APi-13" value="" style="edgeStyle=orthogonalEdgeStyle;rounded=0;orthogonalLoop=1;jettySize=auto;html=1;" edge="1" parent="1" source="1n4Yk2UCJYNvjyyztTE--26" target="b-xcaAoUIbwOstEj6APi-8">
          <mxGeometry relative="1" as="geometry" />
        </mxCell>
        <mxCell id="1n4Yk2UCJYNvjyyztTE--26" value="Stock Agg&lt;div&gt;Metrics&lt;/div&gt;" style="sketch=0;points=[[0,0,0],[0.25,0,0],[0.5,0,0],[0.75,0,0],[1,0,0],[0,1,0],[0.25,1,0],[0.5,1,0],[0.75,1,0],[1,1,0],[0,0.25,0],[0,0.5,0],[0,0.75,0],[1,0.25,0],[1,0.5,0],[1,0.75,0]];outlineConnect=0;fontColor=#232F3E;fillColor=#ED7100;strokeColor=#ffffff;dashed=0;verticalLabelPosition=bottom;verticalAlign=top;align=center;html=1;fontSize=12;fontStyle=0;aspect=fixed;shape=mxgraph.aws4.resourceIcon;resIcon=mxgraph.aws4.lambda;" parent="1" vertex="1">
          <mxGeometry x="740" y="151.76" width="78" height="78" as="geometry" />
        </mxCell>
        <mxCell id="D3B8bndA1nvI0VPb8uTp-1" value="" style="edgeStyle=orthogonalEdgeStyle;rounded=0;orthogonalLoop=1;jettySize=auto;html=1;" parent="1" source="1n4Yk2UCJYNvjyyztTE--41" target="fBFpw9BbKXkqqfKcCaDd-10" edge="1">
          <mxGeometry relative="1" as="geometry" />
        </mxCell>
        <mxCell id="1n4Yk2UCJYNvjyyztTE--41" value="Daily Run" style="sketch=0;points=[[0,0,0],[0.25,0,0],[0.5,0,0],[0.75,0,0],[1,0,0],[0,1,0],[0.25,1,0],[0.5,1,0],[0.75,1,0],[1,1,0],[0,0.25,0],[0,0.5,0],[0,0.75,0],[1,0.25,0],[1,0.5,0],[1,0.75,0]];outlineConnect=0;fontColor=#232F3E;fillColor=#E7157B;strokeColor=#ffffff;dashed=0;verticalLabelPosition=bottom;verticalAlign=top;align=center;html=1;fontSize=12;fontStyle=0;aspect=fixed;shape=mxgraph.aws4.resourceIcon;resIcon=mxgraph.aws4.eventbridge;" parent="1" vertex="1">
          <mxGeometry x="870" y="19.25" width="78" height="78" as="geometry" />
        </mxCell>
        <mxCell id="qgr6OVOABY8kYw6VY6ty-2" value="" style="edgeStyle=orthogonalEdgeStyle;rounded=0;orthogonalLoop=1;jettySize=auto;html=1;" parent="1" source="fBFpw9BbKXkqqfKcCaDd-2" target="qgr6OVOABY8kYw6VY6ty-1" edge="1">
          <mxGeometry relative="1" as="geometry" />
        </mxCell>
        <mxCell id="fBFpw9BbKXkqqfKcCaDd-2" value="Check&lt;div&gt;Stock &lt;span style=&quot;background-color: initial;&quot;&gt;Metrics&lt;/span&gt;&lt;/div&gt;" style="sketch=0;points=[[0,0,0],[0.25,0,0],[0.5,0,0],[0.75,0,0],[1,0,0],[0,1,0],[0.25,1,0],[0.5,1,0],[0.75,1,0],[1,1,0],[0,0.25,0],[0,0.5,0],[0,0.75,0],[1,0.25,0],[1,0.5,0],[1,0.75,0]];outlineConnect=0;fontColor=#232F3E;fillColor=#ED7100;strokeColor=#ffffff;dashed=0;verticalLabelPosition=bottom;verticalAlign=top;align=center;html=1;fontSize=12;fontStyle=0;aspect=fixed;shape=mxgraph.aws4.resourceIcon;resIcon=mxgraph.aws4.lambda;" parent="1" vertex="1">
          <mxGeometry x="1140" y="19.25" width="78" height="78" as="geometry" />
        </mxCell>
        <mxCell id="fBFpw9BbKXkqqfKcCaDd-18" value="" style="edgeStyle=orthogonalEdgeStyle;rounded=0;orthogonalLoop=1;jettySize=auto;html=1;" parent="1" source="fBFpw9BbKXkqqfKcCaDd-10" target="fBFpw9BbKXkqqfKcCaDd-2" edge="1">
          <mxGeometry relative="1" as="geometry" />
        </mxCell>
        <mxCell id="fBFpw9BbKXkqqfKcCaDd-10" value="Current&lt;div&gt;stock price/nav/etc&lt;/div&gt;" style="sketch=0;points=[[0,0,0],[0.25,0,0],[0.5,0,0],[0.75,0,0],[1,0,0],[0,1,0],[0.25,1,0],[0.5,1,0],[0.75,1,0],[1,1,0],[0,0.25,0],[0,0.5,0],[0,0.75,0],[1,0.25,0],[1,0.5,0],[1,0.75,0]];outlineConnect=0;fontColor=#232F3E;fillColor=#ED7100;strokeColor=#ffffff;dashed=0;verticalLabelPosition=bottom;verticalAlign=top;align=center;html=1;fontSize=12;fontStyle=0;aspect=fixed;shape=mxgraph.aws4.resourceIcon;resIcon=mxgraph.aws4.lambda;" parent="1" vertex="1">
          <mxGeometry x="1002" y="19.25" width="78" height="78" as="geometry" />
        </mxCell>
        <mxCell id="fBFpw9BbKXkqqfKcCaDd-19" value="" style="edgeStyle=orthogonalEdgeStyle;rounded=0;orthogonalLoop=1;jettySize=auto;html=1;" parent="1" source="fBFpw9BbKXkqqfKcCaDd-14" target="fBFpw9BbKXkqqfKcCaDd-10" edge="1">
          <mxGeometry relative="1" as="geometry" />
        </mxCell>
        <mxCell id="fBFpw9BbKXkqqfKcCaDd-14" value="yfinance" style="aspect=fixed;sketch=0;html=1;dashed=0;whitespace=wrap;verticalLabelPosition=bottom;verticalAlign=top;fillColor=#2875E2;strokeColor=#ffffff;points=[[0.005,0.63,0],[0.1,0.2,0],[0.9,0.2,0],[0.5,0,0],[0.995,0.63,0],[0.72,0.99,0],[0.5,1,0],[0.28,0.99,0]];shape=mxgraph.kubernetes.icon2;kubernetesLabel=1;prIcon=api" parent="1" vertex="1">
          <mxGeometry x="1009" y="-110" width="64" height="61.44" as="geometry" />
        </mxCell>
        <mxCell id="fBFpw9BbKXkqqfKcCaDd-27" value="" style="endArrow=classic;html=1;rounded=0;entryX=0.5;entryY=1;entryDx=0;entryDy=0;entryPerimeter=0;exitX=0.5;exitY=0;exitDx=0;exitDy=0;exitPerimeter=0;" parent="1" source="1n4Yk2UCJYNvjyyztTE--8" target="fBFpw9BbKXkqqfKcCaDd-2" edge="1">
          <mxGeometry width="50" height="50" relative="1" as="geometry">
            <mxPoint x="800" y="80" as="sourcePoint" />
            <mxPoint x="850" y="30" as="targetPoint" />
            <Array as="points" />
          </mxGeometry>
        </mxCell>
        <mxCell id="qgr6OVOABY8kYw6VY6ty-6" value="" style="edgeStyle=orthogonalEdgeStyle;rounded=0;orthogonalLoop=1;jettySize=auto;html=1;" parent="1" source="qgr6OVOABY8kYw6VY6ty-1" target="qgr6OVOABY8kYw6VY6ty-3" edge="1">
          <mxGeometry relative="1" as="geometry" />
        </mxCell>
        <mxCell id="qgr6OVOABY8kYw6VY6ty-1" value="SNS Alerts" style="outlineConnect=0;dashed=0;verticalLabelPosition=bottom;verticalAlign=top;align=center;html=1;shape=mxgraph.aws3.sns;fillColor=#D9A741;gradientColor=none;" parent="1" vertex="1">
          <mxGeometry x="1275" y="20.75" width="76.5" height="76.5" as="geometry" />
        </mxCell>
        <mxCell id="qgr6OVOABY8kYw6VY6ty-3" value="Subscribers" style="shape=umlActor;verticalLabelPosition=bottom;verticalAlign=top;html=1;outlineConnect=0;" parent="1" vertex="1">
          <mxGeometry x="1410" y="22.75" width="50" height="72.5" as="geometry" />
        </mxCell>
        <mxCell id="b-xcaAoUIbwOstEj6APi-5" value="" style="edgeStyle=orthogonalEdgeStyle;rounded=0;orthogonalLoop=1;jettySize=auto;html=1;entryX=0;entryY=0.5;entryDx=0;entryDy=0;" edge="1" parent="1" source="b-xcaAoUIbwOstEj6APi-1" target="1n4Yk2UCJYNvjyyztTE--20">
          <mxGeometry relative="1" as="geometry" />
        </mxCell>
        <mxCell id="b-xcaAoUIbwOstEj6APi-1" value="Raw Data&lt;div&gt;bronze/cef/nav&lt;/div&gt;" style="sketch=0;points=[[0,0,0],[0.25,0,0],[0.5,0,0],[0.75,0,0],[1,0,0],[0,1,0],[0.25,1,0],[0.5,1,0],[0.75,1,0],[1,1,0],[0,0.25,0],[0,0.5,0],[0,0.75,0],[1,0.25,0],[1,0.5,0],[1,0.75,0]];outlineConnect=0;fontColor=#232F3E;fillColor=#7AA116;strokeColor=#ffffff;dashed=0;verticalLabelPosition=bottom;verticalAlign=top;align=center;html=1;fontSize=12;fontStyle=0;aspect=fixed;shape=mxgraph.aws4.resourceIcon;resIcon=mxgraph.aws4.s3;" vertex="1" parent="1">
          <mxGeometry x="200" y="70" width="78" height="78" as="geometry" />
        </mxCell>
        <mxCell id="b-xcaAoUIbwOstEj6APi-4" value="" style="endArrow=classic;html=1;rounded=0;exitX=1;exitY=0.5;exitDx=0;exitDy=0;entryX=0;entryY=0.5;entryDx=0;entryDy=0;entryPerimeter=0;" edge="1" parent="1" source="khy_yN-TwpCxYzihnUn8-9" target="b-xcaAoUIbwOstEj6APi-1">
          <mxGeometry width="50" height="50" relative="1" as="geometry">
            <mxPoint x="500" y="210" as="sourcePoint" />
            <mxPoint x="550" y="160" as="targetPoint" />
            <Array as="points">
              <mxPoint x="180" y="198" />
              <mxPoint x="180" y="110" />
            </Array>
          </mxGeometry>
        </mxCell>
        <mxCell id="b-xcaAoUIbwOstEj6APi-12" value="" style="edgeStyle=orthogonalEdgeStyle;rounded=0;orthogonalLoop=1;jettySize=auto;html=1;" edge="1" parent="1" source="b-xcaAoUIbwOstEj6APi-8" target="1n4Yk2UCJYNvjyyztTE--23">
          <mxGeometry relative="1" as="geometry" />
        </mxCell>
        <mxCell id="b-xcaAoUIbwOstEj6APi-8" value="Current Overall Stock&amp;nbsp;&lt;div&gt;Metrics&lt;/div&gt;" style="sketch=0;points=[[0,0,0],[0.25,0,0],[0.5,0,0],[0.75,0,0],[1,0,0],[0,1,0],[0.25,1,0],[0.5,1,0],[0.75,1,0],[1,1,0],[0,0.25,0],[0,0.5,0],[0,0.75,0],[1,0.25,0],[1,0.5,0],[1,0.75,0]];outlineConnect=0;fontColor=#232F3E;fillColor=#C925D1;strokeColor=#ffffff;dashed=0;verticalLabelPosition=bottom;verticalAlign=top;align=center;html=1;fontSize=12;fontStyle=0;aspect=fixed;shape=mxgraph.aws4.resourceIcon;resIcon=mxgraph.aws4.rds;" vertex="1" parent="1">
          <mxGeometry x="860" y="151.76" width="78" height="78" as="geometry" />
        </mxCell>
      </root>
    </mxGraphModel>
  </diagram>
</mxfile>
